<svg width="36" height="23" viewBox="0 0 36 23" fill="none" xmlns="http://www.w3.org/2000/svg">
<path fill-rule="evenodd" clip-rule="evenodd" d="M35.1075 18.2974C34.2915 16.6541 33.2163 15.1529 31.923 13.8514C31.4905 13.3626 31.0376 12.8922 30.5655 12.4414L30.5085 12.3859C30.3332 12.2157 30.1602 12.0432 29.9895 11.8684C31.7574 9.41008 33.2702 6.77799 34.5045 4.01295L34.554 3.90195L34.5885 3.78495C34.752 3.24045 34.938 2.20545 34.278 1.26945C33.594 0.303449 32.5005 0.129449 31.767 0.129449H28.3965C27.6908 0.0972876 26.9929 0.289197 26.4029 0.677712C25.8128 1.06623 25.3608 1.63143 25.1115 2.29245C24.3861 4.01991 23.478 5.66477 22.4025 7.19895V3.24945C22.4025 2.73945 22.3545 1.88445 21.807 1.16445C21.153 0.300449 20.2065 0.129449 19.5495 0.129449H14.2005C13.5025 0.113389 12.8251 0.366391 12.3085 0.836061C11.7919 1.30573 11.4758 1.95609 11.4255 2.65245L11.421 2.71995V2.78745C11.421 3.51495 11.709 4.05195 11.94 4.38945C12.0435 4.54095 12.153 4.67895 12.2235 4.76595L12.2385 4.78545C12.3135 4.87845 12.363 4.93995 12.4125 5.00895C12.5445 5.18595 12.732 5.46195 12.786 6.17295V8.38245C11.7123 6.58443 10.8319 4.67781 10.1595 2.69445L10.1475 2.66145L10.1355 2.62995C9.9525 2.15145 9.66 1.45545 9.0735 0.924449C8.3895 0.301949 7.5795 0.129449 6.843 0.129449H3.423C2.6775 0.129449 1.779 0.30345 1.1085 1.00995C0.45 1.70595 0.375 2.53995 0.375 2.98095V3.18195L0.417 3.37695C1.36395 7.77311 3.31535 11.8905 6.1185 15.4069C7.40006 17.4279 9.13993 19.1184 11.197 20.3412C13.254 21.564 15.5703 22.2847 17.958 22.4449L18.0195 22.4494H18.0825C19.1715 22.4494 20.307 22.3549 21.1605 21.7864C22.311 21.0184 22.4025 19.841 22.4025 19.2529V17.5459C22.698 17.7859 23.064 18.1069 23.5125 18.5389C24.0555 19.0819 24.4875 19.5529 24.858 19.9639L25.056 20.1829C25.344 20.5039 25.6275 20.8204 25.8855 21.0799C26.2095 21.4054 26.61 21.7639 27.111 22.0294C27.6555 22.3159 28.227 22.4464 28.833 22.4464H32.2545C32.976 22.4464 34.0095 22.2754 34.737 21.4324C35.529 20.5144 35.469 19.3879 35.22 18.5794L35.175 18.4339L35.1075 18.2974ZM26.5275 18.4564C26.0626 17.9368 25.5839 17.4296 25.092 16.9354L25.0875 16.9309C23.052 14.9689 22.1025 14.6284 21.4305 14.6284C21.072 14.6284 20.6775 14.6674 20.421 14.9884C20.3055 15.1416 20.2298 15.3209 20.2005 15.5104C20.1643 15.7305 20.1483 15.9535 20.1525 16.1764V19.2529C20.1525 19.6354 20.0895 19.7959 19.9125 19.9129C19.677 20.0704 19.1745 20.1979 18.096 20.1979C16.0473 20.0585 14.061 19.4349 12.3003 18.3783C10.5396 17.3216 9.05478 15.8622 7.968 14.1199L7.956 14.1004L7.941 14.0824C5.32967 10.8322 3.50977 7.01931 2.625 2.94495C2.631 2.74995 2.673 2.63145 2.742 2.55945C2.8125 2.48445 2.985 2.37945 3.423 2.37945H6.843C7.2225 2.37945 7.4205 2.46345 7.563 2.59095C7.722 2.73795 7.863 2.98545 8.031 3.42645C8.871 5.89545 10.005 8.20545 11.0805 9.90195C11.6175 10.7509 12.1455 11.4574 12.6225 11.9569C12.861 12.2059 13.0935 12.4129 13.317 12.5599C13.5315 12.7009 13.776 12.8134 14.028 12.8134C14.16 12.8134 14.3145 12.7984 14.463 12.7339C14.6234 12.6631 14.7554 12.5406 14.838 12.3859C14.9925 12.1039 15.036 11.6884 15.036 11.1439V6.08445C14.9565 4.85745 14.586 4.16595 14.226 3.67545C14.1531 3.57734 14.0781 3.48082 14.001 3.38595L13.9815 3.36195C13.9175 3.28426 13.8565 3.2042 13.7985 3.12195C13.7247 3.03022 13.6802 2.91834 13.671 2.80095C13.6828 2.68175 13.7396 2.57156 13.83 2.49293C13.9203 2.41429 14.0373 2.37316 14.157 2.37795H19.5495C19.8585 2.37795 19.962 2.45295 20.0145 2.52345C20.0895 2.62095 20.1525 2.82345 20.1525 3.24945V10.0414C20.1525 10.8484 20.5245 11.3944 21.0645 11.3944C21.6855 11.3944 22.134 11.0179 22.917 10.2349L22.9305 10.2199L22.9425 10.2064C24.699 8.06487 26.134 5.67881 27.2025 3.12345L27.2085 3.10545C27.2888 2.87968 27.4407 2.68637 27.6411 2.55502C27.8416 2.42366 28.0794 2.36148 28.3185 2.37795H31.7685C32.2365 2.37795 32.3895 2.49795 32.4405 2.56845C32.493 2.64345 32.5305 2.80395 32.4405 3.11895C31.2084 5.87348 29.6852 8.48835 27.897 10.9189L27.885 10.9369C27.7125 11.2024 27.522 11.4964 27.495 11.8324C27.465 12.1954 27.621 12.5239 27.8955 12.8779C28.095 13.1719 28.5075 13.5754 28.926 13.9849L28.965 14.0239C29.403 14.4529 29.8785 14.9179 30.2595 15.3679L30.27 15.3784L30.2805 15.3904C31.4166 16.5237 32.3614 17.8337 33.078 19.2694C33.192 19.6594 33.123 19.8604 33.033 19.9639C32.9295 20.0839 32.697 20.1964 32.256 20.1964H28.833C28.5997 20.2021 28.3689 20.1479 28.1625 20.0389C27.9096 19.8918 27.6801 19.7078 27.4815 19.4929C27.267 19.2784 27.0345 19.0189 26.7495 18.7024L26.529 18.4564H26.5275Z" fill="#FFF9F4"/>
</svg>
