<svg width="32" height="24" viewBox="0 0 32 24" fill="none" xmlns="http://www.w3.org/2000/svg">
<path d="M31.75 11.902C31.75 11.8246 31.75 11.7367 31.7465 11.6348C31.743 11.35 31.7359 11.0301 31.7289 10.6891C31.7008 9.7082 31.6516 8.73086 31.5742 7.80976C31.4688 6.54062 31.3141 5.48242 31.1031 4.68789C30.8805 3.85873 30.4442 3.10251 29.8377 2.49483C29.2313 1.88715 28.476 1.44928 27.6473 1.225C26.6523 0.957812 24.7047 0.792578 21.9625 0.690625C20.6582 0.641406 19.2625 0.609765 17.8668 0.592187C17.3781 0.585156 16.9246 0.581641 16.5168 0.578125H15.4832C15.0754 0.581641 14.6219 0.585156 14.1332 0.592187C12.7375 0.609765 11.3418 0.641406 10.0375 0.690625C7.29531 0.796094 5.34414 0.961328 4.35273 1.225C3.52375 1.44873 2.76813 1.88641 2.1616 2.49418C1.55507 3.10195 1.11892 3.85846 0.896875 4.68789C0.682422 5.48242 0.53125 6.54062 0.425781 7.80976C0.348437 8.73086 0.299219 9.7082 0.271094 10.6891C0.260547 11.0301 0.257031 11.35 0.253516 11.6348C0.253516 11.7367 0.25 11.8246 0.25 11.902V12.0988C0.25 12.1762 0.25 12.2641 0.253516 12.366C0.257031 12.6508 0.264062 12.9707 0.271094 13.3117C0.299219 14.2926 0.348437 15.2699 0.425781 16.191C0.53125 17.4602 0.685938 18.5184 0.896875 19.3129C1.34688 20.9969 2.66875 22.3258 4.35273 22.7758C5.34414 23.043 7.29531 23.2082 10.0375 23.3102C11.3418 23.3594 12.7375 23.391 14.1332 23.4086C14.6219 23.4156 15.0754 23.4191 15.4832 23.4227H16.5168C16.9246 23.4191 17.3781 23.4156 17.8668 23.4086C19.2625 23.391 20.6582 23.3594 21.9625 23.3102C24.7047 23.2047 26.6559 23.0395 27.6473 22.7758C29.3312 22.3258 30.6531 21.0004 31.1031 19.3129C31.3176 18.5184 31.4688 17.4602 31.5742 16.191C31.6516 15.2699 31.7008 14.2926 31.7289 13.3117C31.7395 12.9707 31.743 12.6508 31.7465 12.366C31.7465 12.2641 31.75 12.1762 31.75 12.0988V11.902ZM29.2188 12.0848C29.2188 12.1586 29.2188 12.2395 29.2152 12.3344C29.2117 12.6086 29.2047 12.9109 29.1977 13.2379C29.173 14.173 29.1238 15.1082 29.05 15.9766C28.9551 17.1086 28.8215 18.0367 28.6562 18.659C28.4383 19.4711 27.7984 20.1145 26.9898 20.3289C26.2516 20.5258 24.3918 20.684 21.8641 20.7789C20.5844 20.8281 19.2062 20.8598 17.8316 20.8773C17.35 20.8844 16.9035 20.8879 16.5027 20.8879H15.4973L14.1684 20.8773C12.7937 20.8598 11.4191 20.8281 10.1359 20.7789C7.6082 20.6805 5.74492 20.5258 5.01016 20.3289C4.20156 20.1109 3.56172 19.4711 3.34375 18.659C3.17852 18.0367 3.04492 17.1086 2.95 15.9766C2.87617 15.1082 2.83047 14.173 2.80234 13.2379C2.7918 12.9109 2.78828 12.6051 2.78477 12.3344C2.78477 12.2395 2.78125 12.1551 2.78125 12.0848V11.916C2.78125 11.8422 2.78125 11.7613 2.78477 11.6664C2.78828 11.3922 2.79531 11.0898 2.80234 10.7629C2.82695 9.82773 2.87617 8.89258 2.95 8.02422C3.04492 6.89219 3.17852 5.96406 3.34375 5.3418C3.56172 4.52969 4.20156 3.88633 5.01016 3.67188C5.74844 3.475 7.6082 3.3168 10.1359 3.22187C11.4156 3.17266 12.7937 3.14102 14.1684 3.12344C14.65 3.11641 15.0965 3.11289 15.4973 3.11289H16.5027L17.8316 3.12344C19.2062 3.14102 20.5809 3.17266 21.8641 3.22187C24.3918 3.32031 26.2551 3.475 26.9898 3.67188C27.7984 3.88984 28.4383 4.52969 28.6562 5.3418C28.8215 5.96406 28.9551 6.89219 29.05 8.02422C29.1238 8.89258 29.1695 9.82773 29.1977 10.7629C29.2082 11.0898 29.2117 11.3957 29.2152 11.6664C29.2152 11.7613 29.2188 11.8457 29.2188 11.916V12.0848ZM12.8711 16.7113L21.0273 11.9652L12.8711 7.28945V16.7113Z" fill="#FFF9F4"/>
</svg>
