<svg width="107.000000" height="35.000000" viewBox="0 0 107 35" fill="none" xmlns="http://www.w3.org/2000/svg" xmlns:xlink="http://www.w3.org/1999/xlink">
		<clipPath id="clip1_521">
			<rect id="google-play 1" rx="0.000000" width="19.000000" height="19.000000" transform="translate(17.500000 7.500000)" fill="white" fill-opacity="0"/>
		</clipPath>
	<rect id="Rectangle 23" rx="17.500000" width="107.000000" height="35.000000" fill="#080809" fill-opacity="1.000000"/>
	<rect id="google-play 1" rx="0.000000" width="19.000000" height="19.000000" transform="translate(17.500000 7.500000)" fill="#FFFFFF" fill-opacity="0"/>
	<g clip-path="url(#clip1_521)">
		<path id="Vector" d="M28.5 17L18.46 26.67C17.99 26.35 17.71 25.81 17.71 25.24L17.71 8.75C17.71 8.18 17.99 7.65 18.46 7.33L28.5 17Z" fill="#2196F3" fill-opacity="1.000000" fill-rule="nonzero"/>
		<path id="Vector" d="M32.02 13.62L28.5 17L18.46 7.33C18.5 7.3 18.54 7.27 18.58 7.24C19.11 6.92 19.77 6.91 20.31 7.22L32.02 13.62Z" fill="#4CAF50" fill-opacity="1.000000" fill-rule="nonzero"/>
		<path id="Vector" d="M36.28 17C36.28 17.64 35.93 18.23 35.37 18.54L32.02 20.37L28.5 17L32.02 13.62L35.37 15.45C35.93 15.76 36.28 16.35 36.28 17Z" fill="#F0BB1F" fill-opacity="1.000000" fill-rule="nonzero"/>
		<path id="Vector" d="M32.02 20.37L20.31 26.78C19.77 27.08 19.11 27.07 18.58 26.75C18.54 26.73 18.5 26.7 18.46 26.67L28.5 17L32.02 20.37Z" fill="#F15A2B" fill-opacity="1.000000" fill-rule="nonzero"/>
	</g>
	<path id="Vector" d="M48.02 11.87L45.21 11.87L45.21 13L46.71 13C46.51 13.53 46.02 13.86 45.28 13.86C44.19 13.86 43.52 13.16 43.52 12.21C43.52 11.23 44.22 10.53 45.16 10.53C45.8 10.53 46.3 10.82 46.53 11.19L47.62 10.56C47.15 9.81 46.24 9.28 45.17 9.28C43.52 9.28 42.24 10.58 42.24 12.2C42.24 13.81 43.5 15.11 45.26 15.11C46.83 15.11 48.02 14.07 48.02 12.35L48.02 11.87ZM67.74 15.11C69.35 15.11 70.65 13.84 70.65 12.2C70.65 10.55 69.35 9.28 67.74 9.28C66.13 9.28 64.83 10.55 64.83 12.2C64.83 13.84 66.13 15.11 67.74 15.11ZM49.62 13.76L49.62 12.77L51.62 12.77L51.62 11.56L49.62 11.56L49.62 10.63L53.22 10.63L53.22 15L54.5 15L54.5 10.63L55.94 10.63L55.94 9.39L48.34 9.39L48.34 15L51.86 15L51.86 13.76L49.62 13.76ZM57.7 9.39L57.7 15L58.98 15L58.98 9.39L57.7 9.39ZM63.31 9.39L59.15 9.39L59.15 10.63L60.59 10.63L60.59 15L61.87 15L61.87 10.63L63.31 10.63L63.31 9.39ZM74.09 9.39L74.09 12.43L71.93 9.39L70.97 9.39L70.97 15L72.25 15L72.25 11.96L74.41 15L75.37 15L75.37 9.39L74.09 9.39ZM67.74 13.86C66.83 13.86 66.11 13.2 66.11 12.2C66.11 11.2 66.83 10.53 67.74 10.53C68.65 10.53 69.37 11.2 69.37 12.2C69.37 13.2 68.65 13.86 67.74 13.86ZM48.02 21.6L48.02 21.39L45.21 21.39L45.21 21.79L47.59 21.79C47.54 22.33 47.31 22.78 46.91 23.14Q46.82 23.21 46.73 23.28L46.73 23.28Q46.16 23.68 45.32 23.68Q44.57 23.68 44 23.35Q43.73 23.2 43.5 22.96Q43.2 22.65 43.02 22.28Q42.8 21.79 42.8 21.2Q42.8 20.58 43.04 20.08Q43.21 19.73 43.49 19.43Q43.75 19.17 44.07 19Q44.6 18.72 45.28 18.72Q45.7 18.72 46.08 18.85Q46.29 18.92 46.48 19.04Q46.88 19.26 47.13 19.6Q47.23 19.73 47.32 19.88L47.69 19.66C47.46 19.25 47.12 18.92 46.69 18.68Q46.47 18.55 46.22 18.46Q45.78 18.31 45.28 18.31Q44.5 18.31 43.89 18.63Q43.51 18.83 43.2 19.15Q42.84 19.51 42.63 19.94Q42.37 20.51 42.37 21.2Q42.37 21.86 42.62 22.42Q42.83 22.87 43.2 23.25Q43.5 23.55 43.86 23.74Q44.49 24.08 45.32 24.08Q46.27 24.08 46.94 23.64Q47.12 23.52 47.28 23.37Q47.63 23.03 47.82 22.6Q48.02 22.15 48.02 21.6ZM52.82 23.85Q53.3 23.64 53.7 23.24Q54.11 22.83 54.32 22.33Q54.54 21.81 54.54 21.2Q54.54 20.57 54.31 20.05Q54.1 19.56 53.7 19.16Q53.29 18.75 52.81 18.54Q52.28 18.31 51.65 18.31Q51.02 18.31 50.49 18.54Q50 18.75 49.6 19.16Q49.2 19.56 48.99 20.05Q48.76 20.57 48.76 21.2Q48.76 21.81 48.98 22.33Q49.19 22.83 49.6 23.24Q50 23.64 50.48 23.85Q51.01 24.08 51.65 24.08Q52.29 24.08 52.82 23.85ZM59.36 23.85Q59.83 23.64 60.23 23.24Q60.64 22.83 60.85 22.33Q61.07 21.81 61.07 21.2Q61.07 20.57 60.84 20.05Q60.63 19.56 60.23 19.16Q59.83 18.75 59.34 18.54Q58.81 18.31 58.18 18.31Q57.55 18.31 57.02 18.54Q56.54 18.75 56.13 19.16Q55.73 19.56 55.52 20.05Q55.29 20.57 55.29 21.2Q55.29 21.81 55.51 22.33Q55.72 22.83 56.13 23.24Q56.53 23.64 57.01 23.85Q57.54 24.08 58.18 24.08Q58.82 24.08 59.36 23.85ZM67.47 21.6L67.47 21.39L64.66 21.39L64.66 21.79L67.04 21.79C66.99 22.33 66.77 22.78 66.36 23.14C65.95 23.5 65.42 23.68 64.77 23.68Q64.02 23.68 63.46 23.35Q63.18 23.2 62.95 22.96Q62.65 22.65 62.48 22.28Q62.25 21.79 62.25 21.2Q62.25 20.58 62.49 20.08Q62.66 19.73 62.94 19.43C63.41 18.95 64.01 18.72 64.74 18.72C65.17 18.72 65.57 18.82 65.94 19.04C66.3 19.25 66.58 19.53 66.77 19.88L67.14 19.66C66.91 19.25 66.58 18.92 66.14 18.68C65.72 18.43 65.25 18.31 64.74 18.31Q63.95 18.31 63.34 18.63Q62.96 18.83 62.65 19.15Q62.29 19.51 62.09 19.94Q61.82 20.51 61.82 21.2Q61.82 21.86 62.07 22.42Q62.28 22.87 62.66 23.25Q62.95 23.55 63.31 23.74Q63.95 24.08 64.77 24.08Q65.72 24.08 66.39 23.64Q66.57 23.52 66.73 23.37Q67.09 23.03 67.27 22.6Q67.47 22.15 67.47 21.6ZM71.6 23.6L68.96 23.6L68.96 18.39L68.53 18.39L68.53 24L71.6 24L71.6 23.6ZM75.7 23.6L72.9 23.6L72.9 21.37L75.46 21.37L75.46 20.97L72.9 20.97L72.9 18.8L75.66 18.8L75.66 18.39L72.48 18.39L72.48 24L75.7 24L75.7 23.6ZM82.03 18.89Q81.84 18.7 81.61 18.58Q81.25 18.39 80.78 18.39L78.88 18.39L78.88 24L79.3 24L79.3 21.86L80.78 21.86Q81.26 21.86 81.63 21.66Q81.85 21.55 82.03 21.37Q82.23 21.17 82.35 20.93Q82.53 20.58 82.53 20.13Q82.53 19.68 82.35 19.33Q82.23 19.09 82.03 18.89ZM86.64 23.6L84 23.6L84 18.39L83.57 18.39L83.57 24L86.64 24L86.64 23.6ZM90.9 22.57L91.44 24L91.89 24L89.72 18.39L89.28 18.39L87.1 24L87.55 24L88.09 22.57L90.9 22.57ZM93.84 21.69L95.88 18.39L95.4 18.39L93.63 21.28L91.85 18.39L91.37 18.39L93.41 21.69L93.41 24L93.84 24L93.84 21.69ZM50.66 23.48Q50.24 23.3 49.9 22.96Q49.56 22.61 49.38 22.19Q49.19 21.74 49.19 21.2C49.19 20.51 49.42 19.92 49.9 19.44Q50.25 19.09 50.67 18.91Q51.12 18.72 51.65 18.72Q52.19 18.72 52.64 18.91Q53.05 19.1 53.39 19.44C53.87 19.92 54.11 20.51 54.11 21.2Q54.11 21.73 53.92 22.18Q53.74 22.6 53.39 22.96Q53.06 23.29 52.66 23.47Q52.2 23.68 51.65 23.68Q51.11 23.68 50.66 23.48ZM57.19 23.48Q56.77 23.3 56.43 22.96Q56.09 22.61 55.91 22.19Q55.72 21.74 55.72 21.2C55.72 20.51 55.95 19.92 56.43 19.44Q56.78 19.09 57.2 18.91Q57.65 18.72 58.18 18.72Q58.72 18.72 59.17 18.91Q59.58 19.1 59.92 19.44C60.4 19.92 60.64 20.51 60.64 21.2C60.64 21.88 60.4 22.47 59.92 22.96Q59.59 23.29 59.19 23.47Q58.73 23.68 58.18 23.68Q57.64 23.68 57.19 23.48ZM81.73 21.08Q81.6 21.22 81.44 21.3Q81.16 21.46 80.78 21.46L79.3 21.46L79.3 18.8L80.78 18.8Q81.16 18.8 81.44 18.95Q81.6 19.04 81.73 19.17C81.98 19.42 82.1 19.74 82.1 20.13C82.1 20.52 81.98 20.83 81.73 21.08ZM90.75 22.17L88.25 22.17L89.5 18.91L90.75 22.17Z" fill="#FFFFFF" fill-opacity="1.000000" fill-rule="evenodd"/>
</svg>
