<svg width="100.000000" height="35.000000" viewBox="0 0 100 35" fill="none" xmlns="http://www.w3.org/2000/svg" xmlns:xlink="http://www.w3.org/1999/xlink">
	<rect id="Rectangle 24" rx="17.500000" width="100.000000" height="35.000000" fill="#080809" fill-opacity="1.000000"/>
	<path id="Vector" d="M21.78 24C19.4 23.98 17.43 19.12 17.43 16.64C17.43 12.6 20.47 11.72 21.64 11.72C22.16 11.72 22.73 11.92 23.22 12.11C23.57 12.23 23.93 12.37 24.13 12.37C24.25 12.37 24.53 12.25 24.78 12.15C25.31 11.94 25.97 11.68 26.73 11.68C26.74 11.68 26.74 11.68 26.74 11.68C27.31 11.68 29.05 11.81 30.1 13.38L30.34 13.75L29.99 14.01C29.49 14.39 28.57 15.08 28.57 16.46C28.57 18.08 29.61 18.71 30.11 19.01C30.33 19.14 30.56 19.28 30.56 19.58C30.56 19.77 29 23.97 26.73 23.97C26.18 23.97 25.79 23.8 25.44 23.66C25.09 23.51 24.79 23.38 24.29 23.38C24.04 23.38 23.72 23.5 23.38 23.63C22.92 23.8 22.39 24 21.8 24L21.78 24Z" fill="#FFFFFF" fill-opacity="1.000000" fill-rule="nonzero"/>
	<path id="Vector" d="M26.97 8C27.03 10.12 25.51 11.6 23.99 11.51C23.74 9.81 25.51 8 26.97 8Z" fill="#FFFFFF" fill-opacity="1.000000" fill-rule="nonzero"/>
	<path id="Vector" d="M47.15 13L48.05 13L48.05 8.62L47.15 8.62L47.15 13ZM54 13L54.9 13L54.9 8.62L54 8.62L54 13ZM49.16 9.73C49.45 9.73 49.7 9.49 49.7 9.19C49.7 8.9 49.45 8.65 49.16 8.65C48.86 8.65 48.62 8.9 48.62 9.19C48.62 9.49 48.86 9.73 49.16 9.73ZM39.03 13L40.08 13L38.65 8.8L37.42 8.8L36 13L37.05 13L37.25 12.34L38.82 12.34L39.03 13ZM52.06 9.91C51.66 9.91 51.36 10.05 51.16 10.28L51.16 8.8L50.26 8.8L50.26 13L51.16 13L51.16 12.71C51.36 12.94 51.66 13.08 52.06 13.08C52.84 13.08 53.49 12.39 53.49 11.5C53.49 10.6 52.84 9.91 52.06 9.91ZM73.1 9.91C72.71 9.91 72.41 10.06 72.25 10.28L72.25 8.8L71.35 8.8L71.35 13L72.25 13L72.25 11.36C72.25 10.93 72.47 10.74 72.8 10.74C73.09 10.74 73.33 10.91 73.33 11.29L73.33 13L74.23 13L74.23 11.15C74.23 10.34 73.71 9.91 73.1 9.91ZM70.84 10.86L70.84 10L70.22 10L70.22 9.16L69.32 9.43L69.32 10L68.84 10L68.84 10.86L69.32 10.86L69.32 11.92C69.32 12.76 69.66 13.12 70.84 13L70.84 12.18C70.44 12.2 70.22 12.18 70.22 11.92L70.22 10.86L70.84 10.86ZM37.54 11.43L38.04 9.89L38.53 11.43L37.54 11.43ZM45.59 10L45.59 10.28C45.39 10.05 45.1 9.91 44.69 9.91C43.91 9.91 43.26 10.6 43.26 11.5C43.26 12.39 43.91 13.08 44.69 13.08C45.1 13.08 45.39 12.94 45.59 12.71L45.59 13L46.49 13L46.49 10L45.59 10ZM56.37 11.86L58.5 11.86Q58.53 11.68 58.53 11.5C58.53 10.59 57.88 9.91 57.01 9.91C56.06 9.91 55.41 10.6 55.41 11.5C55.41 12.39 56.05 13.08 57.07 13.08C57.64 13.08 58.09 12.87 58.38 12.46L57.66 12.05C57.54 12.18 57.33 12.28 57.09 12.28C56.76 12.28 56.48 12.17 56.37 11.86ZM61.98 13.08C62.86 13.08 63.57 12.39 63.57 11.5C63.57 10.6 62.86 9.91 61.98 9.91C61.1 9.91 60.39 10.6 60.39 11.5C60.39 12.39 61.1 13.08 61.98 13.08ZM65.84 9.91C65.44 9.91 65.14 10.06 64.98 10.28L64.98 10L64.08 10L64.08 13L64.98 13L64.98 11.36C64.98 10.93 65.21 10.74 65.54 10.74C65.83 10.74 66.06 10.91 66.06 11.29L66.06 13L66.96 13L66.96 11.15C66.96 10.34 66.44 9.91 65.84 9.91ZM75.65 11.86L77.78 11.86C77.8 11.74 77.81 11.62 77.81 11.5C77.81 10.59 77.17 9.91 76.29 9.91C75.34 9.91 74.69 10.6 74.69 11.5C74.69 12.39 75.33 13.08 76.36 13.08C76.93 13.08 77.37 12.87 77.66 12.46L76.94 12.05C76.82 12.18 76.61 12.28 76.37 12.28C76.04 12.28 75.76 12.17 75.65 11.86ZM42.2 10L41.58 11.9L40.95 10L39.96 10L41.07 13L42.09 13L43.2 10L42.2 10ZM48.71 13L49.61 13L49.61 10L48.71 10L48.71 13ZM56.35 11.18C56.43 10.88 56.66 10.71 57 10.71C57.27 10.71 57.54 10.84 57.64 11.18L56.35 11.18ZM75.63 11.18C75.71 10.88 75.94 10.71 76.28 10.71C76.55 10.71 76.82 10.84 76.92 11.18L75.63 11.18ZM44.87 12.23C44.46 12.23 44.16 11.95 44.16 11.5C44.16 11.05 44.46 10.76 44.87 10.76C45.29 10.76 45.59 11.05 45.59 11.5C45.59 11.95 45.29 12.23 44.87 12.23ZM51.88 12.23C51.46 12.23 51.16 11.95 51.16 11.5C51.16 11.05 51.46 10.76 51.88 10.76C52.29 10.76 52.59 11.05 52.59 11.5C52.59 11.95 52.29 12.23 51.88 12.23ZM61.98 12.2C61.59 12.2 61.29 11.92 61.29 11.5C61.29 11.07 61.59 10.79 61.98 10.79C62.37 10.79 62.67 11.07 62.67 11.5C62.67 11.92 62.37 12.2 61.98 12.2ZM55.8 24L57.3 24L57.3 16.7L55.8 16.7L55.8 24ZM69.2 24.14C70.72 24.14 71.8 23.34 71.8 21.99C71.8 20.51 70.61 20.14 69.55 19.82C68.46 19.49 68.29 19.27 68.29 18.95C68.29 18.66 68.54 18.41 69.04 18.41C69.68 18.41 70.01 18.73 70.25 19.23L71.6 18.43C71.09 17.41 70.19 16.86 69.04 16.86C67.83 16.86 66.69 17.64 66.69 18.99C66.69 20.33 67.71 20.83 68.75 21.12C69.8 21.41 70.2 21.58 70.2 22.01C70.2 22.28 70.01 22.58 69.25 22.58C68.46 22.58 68.03 22.18 67.78 21.61L66.4 22.41C66.79 23.43 67.73 24.14 69.2 24.14ZM41.05 24L42.8 24L40.41 17L38.37 17L36 24L37.75 24L38.1 22.89L40.7 22.89L41.05 24ZM75.33 20.43L75.33 19L74.3 19L74.3 17.6L72.8 18.05L72.8 19L72 19L72 20.43L72.8 20.43L72.8 22.21C72.8 23.61 73.37 24.2 75.33 24L75.33 22.64C74.67 22.68 74.3 22.64 74.3 22.21L74.3 20.43L75.33 20.43ZM38.58 21.39L39.39 18.83L40.22 21.39L38.58 21.39ZM46.33 18.86C45.66 18.86 45.17 19.09 44.84 19.47L44.84 19L43.34 19L43.34 26L44.84 26L44.84 23.53C45.17 23.91 45.66 24.14 46.33 24.14C47.64 24.14 48.72 22.99 48.72 21.5C48.72 20.01 47.64 18.86 46.33 18.86ZM52.56 18.86C51.89 18.86 51.4 19.09 51.07 19.47L51.07 19L49.57 19L49.57 26L51.07 26L51.07 23.53C51.4 23.91 51.89 24.14 52.56 24.14C53.87 24.14 54.95 22.99 54.95 21.5C54.95 20.01 53.87 18.86 52.56 18.86ZM59.74 22.1L63.29 22.1C63.33 21.91 63.35 21.71 63.35 21.5C63.35 19.99 62.27 18.86 60.81 18.86C59.23 18.86 58.15 20.01 58.15 21.5C58.15 22.99 59.21 24.14 60.92 24.14C61.87 24.14 62.61 23.79 63.1 23.11L61.9 22.41C61.7 22.64 61.35 22.8 60.94 22.8C60.39 22.8 59.93 22.62 59.74 22.1ZM78.49 24.14C79.96 24.14 81.14 22.99 81.14 21.5C81.14 20.01 79.96 18.86 78.49 18.86C77.02 18.86 75.84 20.01 75.84 21.5C75.84 22.99 77.02 24.14 78.49 24.14ZM86.88 22.1L90.43 22.1Q90.49 21.81 90.49 21.5C90.49 19.99 89.41 18.86 87.95 18.86C86.37 18.86 85.29 20.01 85.29 21.5C85.29 22.99 86.35 24.14 88.06 24.14C89.01 24.14 89.75 23.79 90.24 23.11L89.04 22.41C88.84 22.64 88.49 22.8 88.08 22.8C87.53 22.8 87.07 22.62 86.88 22.1ZM83.48 19.89L83.48 19L81.98 19L81.98 24L83.48 24L83.48 21.74C83.48 20.75 84.36 20.5 84.98 20.6L84.98 18.89C84.35 18.89 83.68 19.22 83.48 19.89ZM59.71 20.98C59.85 20.47 60.23 20.18 60.8 20.18C61.25 20.18 61.7 20.39 61.86 20.98L59.71 20.98ZM86.85 20.98C86.99 20.47 87.37 20.18 87.94 20.18C88.39 20.18 88.84 20.39 89 20.98L86.85 20.98ZM46.03 22.72C45.34 22.72 44.84 22.25 44.84 21.5C44.84 20.75 45.34 20.28 46.03 20.28C46.72 20.28 47.22 20.75 47.22 21.5C47.22 22.25 46.72 22.72 46.03 22.72ZM52.26 22.72C51.57 22.72 51.07 22.25 51.07 21.5C51.07 20.75 51.57 20.28 52.26 20.28C52.95 20.28 53.45 20.75 53.45 21.5C53.45 22.25 52.95 22.72 52.26 22.72ZM78.49 22.68C77.84 22.68 77.34 22.21 77.34 21.5C77.34 20.79 77.84 20.32 78.49 20.32C79.14 20.32 79.64 20.79 79.64 21.5C79.64 22.21 79.14 22.68 78.49 22.68Z" fill="#FFFFFF" fill-opacity="1.000000" fill-rule="evenodd"/>
</svg>
