<svg width="16.000000" height="16.000000" viewBox="0 0 16 16" fill="none" xmlns="http://www.w3.org/2000/svg" xmlns:xlink="http://www.w3.org/1999/xlink">
	<path id="Vector" d="M0.26 15.46L1.86 15.46L1.86 6.66C1.86 6.51 1.98 6.39 2.13 6.39L5.86 6.39L5.86 0.26C5.86 0.11 5.98 0 6.13 0L13.06 0C13.21 0 13.33 0.11 13.33 0.26L13.33 15.46L15.73 15.46C15.88 15.46 16 15.58 16 15.73C16 15.88 15.88 16 15.73 16L0.26 16C0.11 16 0 15.88 0 15.73C0 15.58 0.11 15.46 0.26 15.46ZM10.4 15.46L11.46 15.46L11.46 13.06C11.46 12.91 11.34 12.8 11.2 12.8L10.66 12.8C10.51 12.8 10.4 12.91 10.4 13.06L10.4 15.46ZM9.33 6.66L9.33 15.46L9.86 15.46L9.86 13.06C9.86 12.62 10.22 12.26 10.66 12.26L11.2 12.26C11.64 12.26 12 12.62 12 13.06L12 15.46L12.8 15.46L12.8 0.53L6.4 0.53L6.4 6.39L9.06 6.39C9.21 6.39 9.33 6.51 9.33 6.66ZM2.4 15.46L8.8 15.46L8.8 6.93L2.4 6.93L2.4 15.46Z" fill="#84829A" fill-opacity="1.000000" fill-rule="nonzero"/>
	<path id="Vector" d="M7.46 3.73L9.06 3.73C9.21 3.73 9.33 3.85 9.33 4L9.33 5.6C9.33 5.74 9.21 5.86 9.06 5.86L7.46 5.86C7.31 5.86 7.19 5.74 7.19 5.6L7.19 4C7.19 3.85 7.31 3.73 7.46 3.73ZM7.73 5.33L8.79 5.33L8.79 4.26L7.73 4.26L7.73 5.33Z" fill="#84829A" fill-opacity="1.000000" fill-rule="nonzero"/>
	<path id="Vector" d="M7.46 1.06L9.06 1.06C9.21 1.06 9.33 1.18 9.33 1.33L9.33 2.93C9.33 3.08 9.21 3.19 9.06 3.19L7.46 3.19C7.31 3.19 7.19 3.08 7.19 2.93L7.19 1.33C7.19 1.18 7.31 1.06 7.46 1.06ZM7.73 2.66L8.79 2.66L8.79 1.6L7.73 1.6L7.73 2.66Z" fill="#84829A" fill-opacity="1.000000" fill-rule="nonzero"/>
	<path id="Vector" d="M10.13 3.73L11.73 3.73C11.88 3.73 12 3.85 12 4L12 5.6C12 5.74 11.88 5.86 11.73 5.86L10.13 5.86C9.98 5.86 9.86 5.74 9.86 5.6L9.86 4C9.86 3.85 9.98 3.73 10.13 3.73ZM10.4 5.33L11.46 5.33L11.46 4.26L10.4 4.26L10.4 5.33Z" fill="#84829A" fill-opacity="1.000000" fill-rule="nonzero"/>
	<path id="Vector" d="M10.13 1.06L11.73 1.06C11.88 1.06 12 1.18 12 1.33L12 2.93C12 3.08 11.88 3.19 11.73 3.19L10.13 3.19C9.98 3.19 9.86 3.08 9.86 2.93L9.86 1.33C9.86 1.18 9.98 1.06 10.13 1.06ZM10.4 2.66L11.46 2.66L11.46 1.6L10.4 1.6L10.4 2.66Z" fill="#84829A" fill-opacity="1.000000" fill-rule="nonzero"/>
	<path id="Vector" d="M10.13 6.39L11.73 6.39C11.88 6.39 12 6.51 12 6.66L12 8.26C12 8.41 11.88 8.53 11.73 8.53L10.13 8.53C9.98 8.53 9.86 8.41 9.86 8.26L9.86 6.66C9.86 6.51 9.98 6.39 10.13 6.39ZM10.4 8L11.46 8L11.46 6.93L10.4 6.93L10.4 8Z" fill="#84829A" fill-opacity="1.000000" fill-rule="nonzero"/>
	<path id="Vector" d="M10.13 9.06L11.73 9.06C11.88 9.06 12 9.18 12 9.33L12 10.93C12 11.08 11.88 11.2 11.73 11.2L10.13 11.2C9.98 11.2 9.86 11.08 9.86 10.93L9.86 9.33C9.86 9.18 9.98 9.06 10.13 9.06ZM10.4 10.66L11.46 10.66L11.46 9.6L10.4 9.6L10.4 10.66Z" fill="#84829A" fill-opacity="1.000000" fill-rule="nonzero"/>
	<path id="Vector" d="M5.06 12.26L3.46 12.26C3.31 12.26 3.19 12.14 3.19 12L3.19 10.39C3.19 10.25 3.31 10.13 3.46 10.13L5.06 10.13C5.21 10.13 5.33 10.25 5.33 10.39L5.33 12C5.33 12.14 5.21 12.26 5.06 12.26ZM4.79 10.66L3.73 10.66L3.73 11.73L4.79 11.73L4.79 10.66Z" fill="#84829A" fill-opacity="1.000000" fill-rule="nonzero"/>
	<path id="Vector" d="M5.06 9.59L3.46 9.59C3.31 9.59 3.19 9.48 3.19 9.33L3.19 7.73C3.19 7.58 3.31 7.46 3.46 7.46L5.06 7.46C5.21 7.46 5.33 7.58 5.33 7.73L5.33 9.33C5.33 9.48 5.21 9.59 5.06 9.59ZM4.79 8L3.73 8L3.73 9.06L4.79 9.06L4.79 8Z" fill="#84829A" fill-opacity="1.000000" fill-rule="nonzero"/>
	<path id="Vector" d="M5.06 14.93L3.46 14.93C3.31 14.93 3.19 14.81 3.19 14.66L3.19 13.06C3.19 12.91 3.31 12.8 3.46 12.8L5.06 12.8C5.21 12.8 5.33 12.91 5.33 13.06L5.33 14.66C5.33 14.81 5.21 14.93 5.06 14.93ZM4.79 13.33L3.73 13.33L3.73 14.4L4.79 14.4L4.79 13.33Z" fill="#84829A" fill-opacity="1.000000" fill-rule="nonzero"/>
	<path id="Vector" d="M7.73 12.26L6.13 12.26C5.98 12.26 5.86 12.14 5.86 12L5.86 10.39C5.86 10.25 5.98 10.13 6.13 10.13L7.73 10.13C7.88 10.13 8 10.25 8 10.39L8 12C8 12.14 7.88 12.26 7.73 12.26ZM7.46 10.66L6.4 10.66L6.4 11.73L7.46 11.73L7.46 10.66Z" fill="#84829A" fill-opacity="1.000000" fill-rule="nonzero"/>
	<path id="Vector" d="M7.73 9.59L6.13 9.59C5.98 9.59 5.86 9.48 5.86 9.33L5.86 7.73C5.86 7.58 5.98 7.46 6.13 7.46L7.73 7.46C7.88 7.46 8 7.58 8 7.73L8 9.33C8 9.48 7.88 9.59 7.73 9.59ZM7.46 8L6.4 8L6.4 9.06L7.46 9.06L7.46 8Z" fill="#84829A" fill-opacity="1.000000" fill-rule="nonzero"/>
	<path id="Vector" d="M7.73 14.93L6.13 14.93C5.98 14.93 5.86 14.81 5.86 14.66L5.86 13.06C5.86 12.91 5.98 12.8 6.13 12.8L7.73 12.8C7.88 12.8 8 12.91 8 13.06L8 14.66C8 14.81 7.88 14.93 7.73 14.93ZM7.46 13.33L6.4 13.33L6.4 14.4L7.46 14.4L7.46 13.33Z" fill="#84829A" fill-opacity="1.000000" fill-rule="nonzero"/>
</svg>
