<svg width="20.000000" height="18.584717" viewBox="0 0 20 18.5847" fill="none" xmlns="http://www.w3.org/2000/svg" xmlns:xlink="http://www.w3.org/1999/xlink">
	<path id="Vector" d="M18.36 1.74C17.32 0.63 15.88 0 14.36 0C12.84 0 11.39 0.63 10.35 1.74L10 2.11L9.64 1.74C7.59 -0.47 4.13 -0.6 1.91 1.46C1.82 1.55 1.72 1.64 1.63 1.74C-0.55 4.09 -0.55 7.73 1.63 10.08L9.48 18.36C9.75 18.64 10.2 18.66 10.49 18.38C10.5 18.37 10.51 18.37 10.52 18.36L18.36 10.08C20.54 7.73 20.54 4.09 18.36 1.74ZM17.33 9.1L17.32 9.1L10 16.83L2.67 9.1C1 7.3 1 4.52 2.67 2.72C4.18 1.09 6.74 0.98 8.38 2.5C8.46 2.57 8.53 2.65 8.61 2.72L9.48 3.64C9.76 3.93 10.23 3.93 10.52 3.64L11.39 2.73C12.9 1.09 15.46 0.98 17.1 2.5C17.18 2.57 17.25 2.65 17.33 2.73C19.01 4.53 19.02 7.31 17.33 9.1Z" fill="#4152CA" fill-opacity="1.000000" fill-rule="nonzero"/>
</svg>
