<svg width="14.000000" height="14.000000" viewBox="0 0 14 14" fill="none" xmlns="http://www.w3.org/2000/svg" xmlns:xlink="http://www.w3.org/1999/xlink">

		<clipPath id="clip1_199">
			<rect id="leaf 1" rx="0.000000" width="13.000000" height="13.000000" transform="translate(0.500000 0.500000)" fill="white" fill-opacity="0"/>
		</clipPath>
	</defs>
	<rect id="leaf 1" rx="0.000000" width="13.000000" height="13.000000" transform="translate(0.500000 0.500000)" fill="#9CA0B0" fill-opacity="0"/>
	<g clip-path="url(#clip1_199)">
		<path id="Vector" d="M13.65 0.15C13.28 0.04 4.26 -0.86 1.09 3.42C-0.31 5.32 -0.34 7.92 1.02 11.15C0.67 11.86 0.37 12.61 0.13 13.4C0.05 13.64 0.19 13.9 0.43 13.97C0.47 13.99 0.52 14 0.56 14C0.76 14 0.94 13.87 1 13.67C3.42 5.87 11.26 2.09 13.67 1.13C13.91 1.04 14.22 0.31 13.65 0.15Z" fill="#84829A" fill-opacity="1.000000" fill-rule="nonzero"/>
		<path id="Vector" d="M2.47 12.12C3.77 12.67 5.08 12.95 6.29 12.95C7.39 12.95 8.4 12.73 9.28 12.27C11.05 11.36 12.13 9.61 12.4 7.21C12.68 4.76 13.03 3.23 13.32 2.29C10.73 3.49 5.16 6.59 2.47 12.12Z" fill="#84829A" fill-opacity="1.000000" fill-rule="nonzero"/>
	</g>
</svg>
