<svg width="14.000000" height="14.000000" viewBox="0 0 14 14" fill="none" xmlns="http://www.w3.org/2000/svg" xmlns:xlink="http://www.w3.org/1999/xlink">
		<clipPath id="clip1_213">
			<rect id="map 1" rx="0.000000" width="13.000000" height="13.000000" transform="translate(0.500000 0.500000)" fill="white" fill-opacity="0"/>
		</clipPath>
	</defs>
	<rect id="map 1" rx="0.000000" width="13.000000" height="13.000000" transform="translate(0.500000 0.500000)" fill="#9CA0B0" fill-opacity="0"/>
	<g clip-path="url(#clip1_213)">
		<path id="Vector" d="M13.5 0C13.42 0 13.34 0.01 13.27 0.05L9.48 1.94L5.2 0.04C5.19 0.04 5.18 0.03 5.18 0.03C5.16 0.02 5.14 0.02 5.12 0.01C5.1 0.01 5.08 0 5.06 0C5.02 0 4.98 0 4.93 0C4.91 0 4.89 0.01 4.87 0.01C4.85 0.02 4.83 0.02 4.82 0.03C4.81 0.03 4.8 0.04 4.79 0.04L0.29 2.04C0.11 2.12 0 2.3 0 2.5L0 13.5C0 13.66 0.08 13.82 0.22 13.91C0.37 14.01 0.54 14.02 0.7 13.95L5 12.04L9.29 13.95C9.3 13.96 9.31 13.95 9.32 13.96C9.44 14.01 9.58 14.01 9.69 13.95C9.7 13.94 9.71 13.95 9.72 13.94L13.72 11.94C13.89 11.86 14 11.68 14 11.5L14 0.5C14 0.22 13.77 0 13.5 0ZM4.5 11.17L1 12.73L1 2.82L4.5 1.26L4.5 11.17ZM9 12.73L5.5 11.17L5.5 1.26L9 2.82L9 12.73ZM13 11.19L10 12.69L10 2.8L13 1.3L13 11.19Z" fill="#84829A" fill-opacity="1.000000" fill-rule="nonzero"/>
	</g>
</svg>
