<svg width="22.000000" height="22.000000" viewBox="0 0 22 22" fill="none" xmlns="http://www.w3.org/2000/svg" xmlns:xlink="http://www.w3.org/1999/xlink">
	<path id="Vector" d="M0.54 4.47C0.24 4.47 0 4.23 0 3.93L0 0.54C0 0.24 0.24 0 0.54 0L3.93 0C4.23 0 4.47 0.24 4.47 0.54L4.47 1.72L17.52 1.72L17.52 0.54C17.52 0.24 17.76 0 18.06 0L21.45 0C21.75 0 21.99 0.24 22 0.54L22 3.93C22 4.23 21.75 4.47 21.45 4.47L20.27 4.47L20.27 17.52L21.45 17.52C21.75 17.52 21.99 17.76 22 18.06L22 21.45C22 21.75 21.75 21.99 21.45 22L18.06 22C17.76 22 17.52 21.75 17.52 21.45L17.52 20.27L4.47 20.27L4.47 21.45C4.47 21.75 4.23 21.99 3.93 22L0.54 22C0.24 22 0 21.75 0 21.45L0 18.06C0 17.76 0.24 17.52 0.54 17.52L1.72 17.52L1.72 4.47L0.54 4.47ZM20.92 3.39L20.92 1.07L18.6 1.07L18.6 3.39L20.92 3.39ZM18.6 20.92L20.92 20.92L20.92 18.6L18.6 18.6L18.6 20.92ZM4.47 18.06L4.47 19.19L17.52 19.19L17.52 18.06C17.52 17.76 17.76 17.52 18.06 17.52L19.19 17.52L19.19 4.47L18.06 4.47C17.76 4.47 17.52 4.23 17.52 3.93L17.52 2.8L4.47 2.8L4.47 3.93C4.47 4.23 4.23 4.47 3.93 4.47L2.8 4.47L2.8 17.52L3.93 17.52C4.23 17.52 4.47 17.76 4.47 18.06ZM1.07 18.6L1.07 20.92L3.39 20.92L3.39 18.6L1.07 18.6ZM3.39 3.39L3.39 1.07L1.07 1.07L1.07 3.39L3.39 3.39Z" fill="#FFFFFF" fill-opacity="1.000000" fill-rule="nonzero"/>
</svg>
