<svg width="22.000000" height="22.000000" viewBox="0 0 22 22" fill="none" xmlns="http://www.w3.org/2000/svg" xmlns:xlink="http://www.w3.org/1999/xlink">
		<filter id="filter_1_208_dd" x="0.000000" y="0.000000" width="22.000000" height="22.000000" filterUnits="userSpaceOnUse" color-interpolation-filters="sRGB">
			<feFlood flood-opacity="0" result="BackgroundImageFix"/>
			<feColorMatrix in="SourceAlpha" type="matrix" values="0 0 0 0 0 0 0 0 0 0 0 0 0 0 0 0 0 0 127 0" result="hardAlpha"/>
			<feOffset dx="0" dy="4"/>
			<feGaussianBlur stdDeviation="1.33333"/>
			<feComposite in2="hardAlpha" operator="out" k2="-1" k3="1"/>
			<feColorMatrix type="matrix" values="0 0 0 0 0 0 0 0 0 0 0 0 0 0 0 0 0 0 0.25 0"/>
			<feBlend mode="normal" in2="BackgroundImageFix" result="effect_dropShadow_1"/>
			<feBlend mode="normal" in="SourceGraphic" in2="effect_dropShadow_1" result="shape"/>
		</filter>
		<clipPath id="clip1_208">
			<rect id="send 2" rx="0.000000" width="13.000000" height="13.000000" transform="translate(4.500000 0.500000)" fill="white" fill-opacity="0"/>
		</clipPath>
	</defs>
	<g filter="url(#filter_1_208_dd)">
		<rect id="send 2" rx="0.000000" width="13.000000" height="13.000000" transform="translate(4.500000 0.500000)" fill="#9CA0B0" fill-opacity="0"/>
		<g clip-path="url(#clip1_208)">
			<path id="Vector" d="M16.34 1.24L10.02 7.58C9.95 7.54 9.87 7.5 9.79 7.47L5.62 6.06C5.5 6.03 5.38 5.96 5.3 5.85C5.22 5.75 5.18 5.63 5.18 5.5C5.18 5.37 5.22 5.24 5.3 5.14C5.38 5.03 5.5 4.96 5.62 4.93L15.97 1.25C16.04 1.23 16.11 1.21 16.18 1.21C16.23 1.21 16.29 1.22 16.34 1.24Z" fill="#84829A" fill-opacity="1.000000" fill-rule="nonzero"/>
			<path id="Vector" d="M16.74 2.02L13.06 12.38C13.02 12.5 12.94 12.6 12.84 12.68C12.73 12.75 12.6 12.78 12.48 12.78C12.35 12.78 12.22 12.75 12.12 12.67C12.01 12.6 11.93 12.49 11.89 12.37L10.51 8.2C10.48 8.12 10.44 8.04 10.4 7.97L16.75 1.65C16.79 1.77 16.78 1.9 16.74 2.02Z" fill="#84829A" fill-opacity="1.000000" fill-rule="nonzero"/>
		</g>
	</g>
</svg>
