<svg width="22.500000" height="18.750000" viewBox="0 0 22.5 18.75" fill="none" xmlns="http://www.w3.org/2000/svg" xmlns:xlink="http://www.w3.org/1999/xlink">
	<path id="Vector" d="M3.75 10.5C3.45 10.5 3.16 10.58 2.91 10.75C2.66 10.91 2.47 11.15 2.36 11.42C2.25 11.7 2.22 12 2.27 12.29C2.33 12.58 2.47 12.85 2.68 13.06C2.89 13.27 3.16 13.41 3.45 13.47C3.74 13.52 4.04 13.49 4.32 13.38C4.59 13.27 4.83 13.08 4.99 12.83C5.16 12.58 5.25 12.29 5.25 12C5.25 11.6 5.09 11.22 4.81 10.93C4.52 10.65 4.14 10.5 3.75 10.5ZM3.75 12.75C3.6 12.75 3.45 12.7 3.33 12.62C3.2 12.54 3.11 12.42 3.05 12.28C3 12.14 2.98 11.99 3.01 11.85C3.04 11.7 3.11 11.57 3.21 11.46C3.32 11.36 3.45 11.29 3.6 11.26C3.74 11.23 3.9 11.25 4.03 11.3C4.17 11.36 4.29 11.46 4.37 11.58C4.45 11.7 4.5 11.85 4.5 12C4.5 12.19 4.42 12.38 4.28 12.53C4.13 12.67 3.94 12.75 3.75 12.75Z" fill="#FFFFFF" fill-opacity="1.000000" fill-rule="nonzero"/>
	<path id="Vector" d="M18.75 10.5C18.45 10.5 18.16 10.58 17.91 10.75C17.66 10.91 17.47 11.15 17.36 11.42C17.25 11.7 17.22 12 17.27 12.29C17.33 12.58 17.47 12.85 17.68 13.06C17.89 13.27 18.16 13.41 18.45 13.47C18.74 13.52 19.04 13.49 19.32 13.38C19.59 13.27 19.83 13.08 19.99 12.83C20.16 12.58 20.25 12.29 20.25 12C20.25 11.6 20.09 11.22 19.81 10.93C19.52 10.65 19.14 10.5 18.75 10.5ZM18.75 12.75C18.6 12.75 18.45 12.7 18.33 12.62C18.2 12.54 18.11 12.42 18.05 12.28C18 12.14 17.98 11.99 18.01 11.85C18.04 11.7 18.11 11.57 18.21 11.46C18.32 11.36 18.45 11.29 18.6 11.26C18.74 11.23 18.9 11.25 19.03 11.3C19.17 11.36 19.29 11.46 19.37 11.58C19.45 11.7 19.5 11.85 19.5 12C19.5 12.19 19.42 12.38 19.28 12.53C19.13 12.67 18.94 12.75 18.75 12.75Z" fill="#FFFFFF" fill-opacity="1.000000" fill-rule="nonzero"/>
	<path id="Vector" d="M7.87 12.37L14.62 12.37L14.62 13.12L7.87 13.12L7.87 12.37Z" fill="#FFFFFF" fill-opacity="1.000000" fill-rule="nonzero"/>
	<path id="Vector" d="M7.87 10.87L14.62 10.87L14.62 11.62L7.87 11.62L7.87 10.87Z" fill="#FFFFFF" fill-opacity="1.000000" fill-rule="nonzero"/>
	<path id="Vector" d="M10.12 5.25L12.37 5.25L12.37 6L10.12 6L10.12 5.25Z" fill="#FFFFFF" fill-opacity="1.000000" fill-rule="nonzero"/>
	<path id="Vector" d="M22.5 8.62L22.5 7.87C22.49 7.57 22.38 7.29 22.16 7.08C21.95 6.86 21.67 6.75 21.37 6.75L19.89 6.75L19.11 4.02L18.88 3.1C18.82 2.85 18.67 2.64 18.48 2.48C18.28 2.33 18.04 2.25 17.79 2.25L14.62 2.25L14.62 0.75C14.62 0.55 14.54 0.36 14.4 0.22C14.26 0.07 14.07 0 13.87 0L8.62 0C8.42 0 8.23 0.07 8.09 0.22C7.95 0.36 7.87 0.55 7.87 0.75L7.87 2.25L4.7 2.25C4.45 2.25 4.21 2.33 4.01 2.48C3.82 2.64 3.67 2.85 3.61 3.1L3.39 4.02L2.6 6.75L1.12 6.75C0.82 6.75 0.54 6.86 0.33 7.08C0.11 7.29 0 7.57 0 7.87L0 8.62C0 8.81 0.04 9 0.14 9.16C0.23 9.33 0.36 9.47 0.52 9.57C0.18 9.92 0 10.38 0 10.87L0 15.37C0 15.53 0.03 15.68 0.09 15.83C0.16 15.97 0.25 16.1 0.37 16.2L0.37 17.62C0.37 17.92 0.49 18.2 0.7 18.41C0.91 18.63 1.2 18.74 1.5 18.75L4.5 18.75C4.79 18.74 5.08 18.63 5.29 18.41C5.5 18.2 5.62 17.92 5.62 17.62L5.62 16.5L16.87 16.5L16.87 17.62C16.87 17.92 16.99 18.2 17.2 18.41C17.41 18.63 17.7 18.74 18 18.75L21 18.75C21.29 18.74 21.58 18.63 21.79 18.41C22 18.2 22.12 17.92 22.12 17.62L22.12 16.2C22.24 16.1 22.33 15.97 22.4 15.83C22.46 15.68 22.49 15.53 22.5 15.37L22.5 10.87C22.5 10.38 22.31 9.92 21.97 9.57C22.13 9.47 22.26 9.33 22.35 9.16C22.45 9 22.49 8.81 22.5 8.62ZM8.62 0.75L13.87 0.75L13.87 2.25L8.62 2.25L8.62 0.75ZM4.34 3.28C4.36 3.2 4.41 3.13 4.47 3.07C4.54 3.02 4.62 3 4.7 3L17.79 3C17.87 3 17.95 3.02 18.02 3.07C18.08 3.13 18.13 3.2 18.15 3.28L18.27 3.75L4.22 3.75L4.34 3.28ZM4.03 4.5L18.46 4.5L19.75 9L8.96 9C8.87 8.47 8.6 8 8.2 7.65C7.79 7.31 7.28 7.12 6.75 7.12C6.21 7.12 5.7 7.31 5.29 7.65C4.89 8 4.62 8.47 4.53 9L2.74 9L4.03 4.5ZM8.19 9L5.3 9C5.38 8.67 5.57 8.39 5.83 8.18C6.09 7.98 6.41 7.87 6.75 7.87C7.08 7.87 7.4 7.98 7.66 8.18C7.92 8.39 8.11 8.67 8.19 9ZM0.75 7.87C0.75 7.77 0.78 7.68 0.85 7.6C0.93 7.53 1.02 7.5 1.12 7.5L2.39 7.5L1.96 9L1.12 9C1.02 9 0.93 8.96 0.85 8.89C0.78 8.81 0.75 8.72 0.75 8.62L0.75 7.87ZM4.87 17.62C4.87 17.72 4.83 17.81 4.76 17.89C4.69 17.96 4.59 18 4.5 18L1.5 18C1.4 18 1.3 17.96 1.23 17.89C1.16 17.81 1.12 17.72 1.12 17.62L1.12 16.5L4.87 16.5L4.87 17.62ZM21.37 17.62C21.37 17.72 21.33 17.81 21.26 17.89C21.19 17.96 21.09 18 21 18L18 18C17.9 18 17.8 17.96 17.73 17.89C17.66 17.81 17.62 17.72 17.62 17.62L17.62 16.5L21.37 16.5L21.37 17.62ZM21.75 15.37C21.75 15.47 21.71 15.56 21.64 15.64C21.56 15.71 21.47 15.75 21.37 15.75L1.12 15.75C1.02 15.75 0.93 15.71 0.85 15.64C0.78 15.56 0.75 15.47 0.75 15.37L0.75 15L21.75 15L21.75 15.37ZM21.75 14.25L0.75 14.25L0.75 10.87C0.75 10.57 0.86 10.29 1.08 10.08C1.29 9.86 1.57 9.75 1.87 9.75L20.62 9.75C20.92 9.75 21.2 9.86 21.41 10.08C21.63 10.29 21.74 10.57 21.75 10.87L21.75 14.25ZM21.75 8.62C21.75 8.72 21.71 8.81 21.64 8.89C21.56 8.96 21.47 9 21.37 9L20.53 9L20.1 7.5L21.37 7.5C21.47 7.5 21.56 7.53 21.64 7.6C21.71 7.68 21.75 7.77 21.75 7.87L21.75 8.62Z" fill="#FFFFFF" fill-opacity="1.000000" fill-rule="nonzero"/>
</svg>
