<svg width="22.054199" height="17.860352" viewBox="0 0 22.0542 17.8604" fill="none" xmlns="http://www.w3.org/2000/svg" xmlns:xlink="http://www.w3.org/1999/xlink">
	<path id="Vector" d="M19.84 17.85C19.39 17.86 18.95 17.74 18.57 17.49C18.29 17.3 17.97 17.21 17.64 17.21C17.3 17.21 16.98 17.3 16.7 17.49C16.32 17.73 15.88 17.85 15.43 17.85C14.98 17.85 14.54 17.73 14.16 17.49C13.88 17.3 13.56 17.21 13.22 17.21C12.89 17.21 12.56 17.3 12.29 17.49C11.91 17.73 11.47 17.85 11.02 17.85C10.57 17.85 10.13 17.73 9.75 17.49C9.47 17.3 9.15 17.21 8.81 17.21C8.48 17.21 8.16 17.3 7.88 17.49C7.53 17.71 7.13 17.84 6.72 17.85L6.7 17.2C7 17.2 7.3 17.1 7.55 16.93C7.93 16.68 8.37 16.56 8.81 16.56C9.26 16.56 9.7 16.68 10.08 16.93C10.36 17.11 10.69 17.21 11.02 17.21C11.35 17.21 11.68 17.11 11.96 16.93C12.34 16.68 12.78 16.56 13.23 16.56C13.67 16.56 14.11 16.68 14.49 16.93C14.77 17.11 15.1 17.21 15.43 17.21C15.76 17.21 16.09 17.11 16.37 16.93C16.75 16.68 17.19 16.56 17.64 16.56C18.08 16.56 18.52 16.68 18.9 16.93C19.18 17.11 19.51 17.21 19.84 17.21C20.18 17.21 20.5 17.11 20.78 16.93C21.16 16.68 21.6 16.55 22.05 16.56L22.05 17.21C21.71 17.2 21.39 17.29 21.11 17.49C20.73 17.74 20.29 17.86 19.84 17.85Z" fill="#FFFFFF" fill-opacity="1.000000" fill-rule="nonzero"/>
	<path id="Vector" d="M2.2 17.85C1.75 17.86 1.31 17.74 0.93 17.49C0.66 17.29 0.33 17.2 0 17.21L0 16.56C0.45 16.55 0.89 16.68 1.26 16.93C1.54 17.12 1.87 17.22 2.2 17.21C2.54 17.22 2.86 17.12 3.14 16.93C3.51 16.68 3.95 16.55 4.4 16.56C4.84 16.55 5.27 16.67 5.64 16.91L5.31 17.47C5.05 17.29 4.73 17.2 4.4 17.21C4.07 17.2 3.74 17.29 3.47 17.49C3.09 17.74 2.65 17.86 2.2 17.85Z" fill="#FFFFFF" fill-opacity="1.000000" fill-rule="nonzero"/>
	<path id="Vector" d="M19.84 15.58C19.39 15.59 18.95 15.46 18.57 15.22C18.29 15.03 17.97 14.94 17.63 14.94C17.3 14.94 16.97 15.03 16.7 15.22C16.32 15.46 15.88 15.58 15.43 15.58C14.98 15.58 14.54 15.46 14.16 15.22C13.88 15.03 13.56 14.94 13.22 14.94C12.89 14.94 12.56 15.03 12.29 15.22C11.91 15.46 11.47 15.58 11.02 15.58C10.57 15.58 10.13 15.46 9.75 15.22C9.47 15.03 9.15 14.94 8.81 14.94C8.48 14.94 8.15 15.03 7.88 15.22C7.5 15.46 7.06 15.59 6.61 15.58C6.16 15.59 5.72 15.46 5.34 15.22C5.07 15.02 4.74 14.93 4.4 14.94C4.07 14.93 3.74 15.02 3.47 15.22C3.09 15.46 2.65 15.59 2.2 15.58C1.75 15.59 1.31 15.46 0.93 15.22C0.66 15.02 0.33 14.93 0 14.94L0 14.29C0.45 14.28 0.89 14.41 1.26 14.66C1.54 14.85 1.87 14.94 2.2 14.94C2.53 14.94 2.86 14.85 3.14 14.66C3.51 14.41 3.95 14.28 4.4 14.29C4.85 14.28 5.3 14.41 5.67 14.66C5.95 14.85 6.27 14.94 6.61 14.94C6.94 14.94 7.27 14.85 7.55 14.66C7.93 14.41 8.37 14.29 8.81 14.29C9.26 14.29 9.7 14.41 10.08 14.66C10.36 14.84 10.69 14.94 11.02 14.94C11.35 14.94 11.68 14.84 11.96 14.66C12.34 14.41 12.78 14.29 13.22 14.29C13.67 14.29 14.11 14.41 14.49 14.66C14.77 14.84 15.1 14.94 15.43 14.94C15.76 14.94 16.09 14.84 16.37 14.66C16.75 14.42 17.19 14.29 17.63 14.29C18.08 14.29 18.52 14.42 18.9 14.66C19.18 14.84 19.51 14.94 19.84 14.94C20.18 14.94 20.5 14.84 20.78 14.66C21.16 14.41 21.6 14.28 22.05 14.29L22.05 14.94C21.71 14.93 21.38 15.02 21.11 15.22C20.73 15.46 20.29 15.59 19.84 15.58Z" fill="#FFFFFF" fill-opacity="1.000000" fill-rule="nonzero"/>
	<path id="Vector" d="M19.84 13.31C19.39 13.32 18.95 13.19 18.57 12.95C18.3 12.75 17.97 12.66 17.63 12.67C17.39 12.66 17.15 12.71 16.92 12.82L16.64 12.23C16.95 12.08 17.29 12.01 17.63 12.02C18.09 12.01 18.53 12.14 18.9 12.39C19.18 12.57 19.51 12.67 19.84 12.67C20.18 12.67 20.5 12.57 20.78 12.39C21.16 12.14 21.6 12.01 22.05 12.02L22.05 12.67C21.71 12.66 21.39 12.75 21.11 12.95C20.73 13.2 20.29 13.32 19.84 13.31Z" fill="#FFFFFF" fill-opacity="1.000000" fill-rule="nonzero"/>
	<path id="Vector" d="M15.43 13.31C14.98 13.32 14.54 13.2 14.16 12.95C13.88 12.76 13.56 12.67 13.22 12.67C12.89 12.67 12.56 12.76 12.28 12.95C11.91 13.19 11.47 13.31 11.02 13.31C10.57 13.31 10.13 13.19 9.75 12.95C9.47 12.76 9.15 12.67 8.81 12.67C8.48 12.67 8.15 12.76 7.87 12.95C7.5 13.19 7.06 13.32 6.61 13.31C6.16 13.32 5.72 13.19 5.34 12.95C5.07 12.75 4.74 12.66 4.4 12.67C4.07 12.66 3.74 12.75 3.47 12.94C3.09 13.19 2.65 13.32 2.2 13.31C1.75 13.32 1.31 13.19 0.93 12.95C0.66 12.75 0.33 12.66 0 12.67L0 12.02C0.45 12.01 0.89 12.14 1.26 12.39C1.54 12.58 1.87 12.67 2.2 12.67C2.54 12.67 2.86 12.58 3.14 12.39C3.51 12.14 3.95 12.01 4.4 12.02C4.85 12.01 5.3 12.14 5.67 12.39C5.95 12.58 6.27 12.67 6.61 12.67C6.94 12.67 7.27 12.58 7.55 12.39C7.93 12.14 8.37 12.02 8.81 12.02C9.26 12.02 9.7 12.14 10.08 12.39C10.36 12.57 10.69 12.67 11.02 12.67C11.35 12.67 11.68 12.57 11.96 12.39C12.34 12.14 12.78 12.02 13.23 12.02C13.67 12.02 14.11 12.14 14.49 12.39C14.78 12.58 15.12 12.68 15.46 12.67C15.49 12.67 15.51 12.66 15.54 12.66L15.62 13.3C15.56 13.31 15.49 13.32 15.43 13.31Z" fill="#FFFFFF" fill-opacity="1.000000" fill-rule="nonzero"/>
	<path id="Vector" d="M19.84 11.04C19.39 11.05 18.95 10.92 18.57 10.67C18.29 10.49 17.97 10.4 17.63 10.4C17.3 10.4 16.97 10.49 16.7 10.67C16.32 10.92 15.88 11.04 15.43 11.04C14.98 11.04 14.54 10.92 14.16 10.67C13.88 10.49 13.56 10.4 13.22 10.4C12.89 10.4 12.56 10.49 12.29 10.67C11.91 10.92 11.47 11.04 11.02 11.04C10.57 11.04 10.13 10.92 9.75 10.67C9.47 10.49 9.15 10.4 8.81 10.4C8.48 10.4 8.15 10.49 7.88 10.67C7.5 10.92 7.06 11.05 6.61 11.04C6.16 11.05 5.72 10.92 5.34 10.67C5.07 10.48 4.74 10.39 4.4 10.4C4.07 10.39 3.74 10.48 3.47 10.67C3.09 10.92 2.65 11.05 2.2 11.04C1.75 11.05 1.31 10.92 0.93 10.67C0.66 10.48 0.33 10.39 0 10.4L0 9.75C0.45 9.74 0.89 9.87 1.26 10.12C1.54 10.31 1.87 10.4 2.2 10.4C2.53 10.4 2.86 10.31 3.14 10.12C3.51 9.87 3.95 9.74 4.4 9.75C4.85 9.74 5.3 9.87 5.67 10.12C5.95 10.31 6.27 10.4 6.61 10.4C6.94 10.4 7.27 10.31 7.55 10.12C7.93 9.87 8.37 9.75 8.81 9.75C9.26 9.75 9.7 9.87 10.08 10.12C10.36 10.3 10.69 10.4 11.02 10.4C11.35 10.4 11.68 10.3 11.96 10.12C12.34 9.87 12.78 9.75 13.22 9.75C13.67 9.75 14.11 9.87 14.49 10.12C14.77 10.3 15.1 10.4 15.43 10.4C15.76 10.4 16.09 10.3 16.37 10.12C16.75 9.87 17.19 9.75 17.63 9.75C18.08 9.75 18.52 9.87 18.9 10.12C19.18 10.3 19.51 10.39 19.84 10.39C20.18 10.39 20.5 10.3 20.78 10.12C21.16 9.87 21.6 9.74 22.05 9.75L22.05 10.4C21.71 10.39 21.38 10.48 21.11 10.67C20.73 10.92 20.29 11.05 19.84 11.04Z" fill="#FFFFFF" fill-opacity="1.000000" fill-rule="nonzero"/>
	<path id="Vector" d="M15.22 10.77L14.61 10.55C14.77 10.1 14.83 9.62 14.8 9.14C14.76 8.66 14.64 8.2 14.42 7.77L12.19 3.41C12.17 3.36 12.16 3.32 12.15 3.27C12.15 3.22 12.16 3.17 12.18 3.13C12.2 3.08 12.23 3.04 12.27 3.01C12.3 2.98 12.35 2.96 12.39 2.95L16.83 1.76C16.98 1.73 17.1 1.63 17.18 1.5C17.26 1.37 17.28 1.22 17.24 1.08C17.2 0.93 17.11 0.81 16.98 0.73C16.86 0.65 16.7 0.63 16.56 0.66L11.18 1.95C11.07 1.97 10.96 2.03 10.87 2.1C10.78 2.18 10.71 2.27 10.66 2.38C10.61 2.49 10.59 2.61 10.59 2.72C10.6 2.84 10.63 2.96 10.68 3.06L12.28 6.03C12.32 6.1 12.33 6.19 12.31 6.27C12.28 6.35 12.23 6.42 12.15 6.46L10.09 7.6L9.78 7.03L11.56 6.05L10.11 3.37C10.01 3.18 9.95 2.96 9.95 2.75C9.94 2.53 9.98 2.31 10.07 2.12C10.16 1.92 10.29 1.74 10.46 1.6C10.63 1.46 10.82 1.37 11.04 1.32L16.41 0.03C16.72 -0.05 17.05 0 17.33 0.17C17.6 0.33 17.8 0.6 17.88 0.91C17.96 1.23 17.91 1.56 17.75 1.83C17.58 2.11 17.31 2.31 17 2.39L12.95 3.47L15 7.47C15.25 7.98 15.41 8.53 15.44 9.1C15.48 9.66 15.41 10.23 15.22 10.77Z" fill="#FFFFFF" fill-opacity="1.000000" fill-rule="nonzero"/>
	<path id="Vector" d="M4.7 9.83L8.64 7.66L8.96 8.23L5.02 10.4L4.7 9.83Z" fill="#FFFFFF" fill-opacity="1.000000" fill-rule="evenodd"/>
	<path id="Vector" d="M18.16 8.61C17.68 8.61 17.21 8.47 16.81 8.2C16.41 7.93 16.09 7.55 15.91 7.11C15.73 6.67 15.68 6.18 15.77 5.7C15.87 5.23 16.1 4.8 16.44 4.46C16.78 4.12 17.21 3.89 17.68 3.79C18.15 3.7 18.64 3.75 19.09 3.93C19.53 4.12 19.91 4.43 20.18 4.83C20.45 5.23 20.59 5.7 20.59 6.18C20.59 6.82 20.33 7.44 19.88 7.9C19.42 8.35 18.8 8.61 18.16 8.61ZM18.16 4.4C17.8 4.4 17.46 4.5 17.17 4.7C16.87 4.89 16.64 5.17 16.51 5.5C16.37 5.82 16.34 6.18 16.41 6.53C16.48 6.87 16.65 7.19 16.9 7.44C17.15 7.69 17.46 7.86 17.81 7.93C18.16 8 18.51 7.96 18.84 7.83C19.17 7.69 19.44 7.46 19.64 7.17C19.84 6.88 19.94 6.53 19.94 6.18C19.94 5.71 19.75 5.25 19.42 4.92C19.08 4.58 18.63 4.4 18.16 4.4Z" fill="#FFFFFF" fill-opacity="1.000000" fill-rule="nonzero"/>
</svg>
