<svg width="16.000000" height="16.000000" viewBox="0 0 16 16" fill="none" xmlns="http://www.w3.org/2000/svg" xmlns:xlink="http://www.w3.org/1999/xlink">
		<clipPath id="clip1_511">
			<rect id="instagram 1" rx="0.000000" width="15.000000" height="15.000000" transform="translate(0.500000 0.500000)" fill="white" fill-opacity="0"/>
		</clipPath>
	<rect id="instagram 1" rx="0.000000" width="15.000000" height="15.000000" transform="translate(0.500000 0.500000)" fill="#FFFFFF" fill-opacity="0"/>
	<g clip-path="url(#clip1_511)">
		<path id="Vector" d="M13.65 0L2.34 0C1.05 0 0 1.05 0 2.34L0 13.65C0 14.94 1.05 16 2.34 16L13.65 16C14.94 16 16 14.94 16 13.65L16 2.34C16 1.05 14.94 0 13.65 0ZM15.06 13.65C15.06 14.43 14.43 15.06 13.65 15.06L2.34 15.06C1.56 15.06 0.93 14.43 0.93 13.65L0.93 2.34C0.93 1.56 1.56 0.93 2.34 0.93L13.65 0.93C14.43 0.93 15.06 1.56 15.06 2.34L15.06 13.65Z" fill="#FFFFFF" fill-opacity="1.000000" fill-rule="nonzero"/>
		<path id="Vector" d="M13.15 1.9C12.63 1.9 12.21 2.32 12.21 2.84C12.21 3.36 12.63 3.78 13.15 3.78C13.67 3.78 14.09 3.36 14.09 2.84C14.09 2.32 13.67 1.9 13.15 1.9Z" fill="#FFFFFF" fill-opacity="1.000000" fill-rule="nonzero"/>
		<path id="Vector" d="M8 3.78C5.67 3.78 3.78 5.67 3.78 8C3.78 10.32 5.67 12.21 8 12.21C10.32 12.21 12.21 10.32 12.21 8C12.21 5.67 10.32 3.78 8 3.78ZM8 11.28C6.19 11.28 4.71 9.8 4.71 8C4.71 6.19 6.19 4.71 8 4.71C9.8 4.71 11.28 6.19 11.28 8C11.28 9.8 9.8 11.28 8 11.28Z" fill="#FFFFFF" fill-opacity="1.000000" fill-rule="nonzero"/>
	</g>
</svg>
