<svg width="16.000000" height="13.000000" viewBox="0 0 16 13" fill="none" xmlns="http://www.w3.org/2000/svg" xmlns:xlink="http://www.w3.org/1999/xlink">
	<path id="Vector" d="M16 1.53C15.4 1.8 14.77 1.97 14.11 2.05C14.79 1.65 15.3 1.01 15.55 0.24C14.91 0.62 14.21 0.88 13.47 1.03C12.87 0.39 12.01 0 11.07 0C9.26 0 7.79 1.47 7.79 3.28C7.79 3.54 7.82 3.79 7.87 4.02C5.14 3.89 2.73 2.58 1.11 0.59C0.83 1.08 0.66 1.65 0.66 2.25C0.66 3.39 1.25 4.39 2.12 4.98C1.59 4.97 1.07 4.81 0.63 4.57C0.63 4.58 0.63 4.6 0.63 4.61C0.63 6.2 1.77 7.53 3.26 7.83C3 7.9 2.7 7.94 2.4 7.94C2.19 7.94 1.98 7.93 1.78 7.88C2.21 9.18 3.41 10.14 4.85 10.17C3.73 11.04 2.31 11.57 0.78 11.57C0.51 11.57 0.25 11.56 0 11.52C1.45 12.46 3.17 13 5.03 13C11.06 13 14.36 8 14.36 3.66C14.36 3.52 14.36 3.38 14.35 3.24C15 2.78 15.55 2.2 16 1.53Z" fill="#080809" fill-opacity="1.000000" fill-rule="nonzero"/>
</svg>
